# xmcd
# 
# Track frame offsets:
#     150
#     17898
#     37688
#     58111
#     71350
#     93995
#     109814
#     130584
#     149009
#     165115
#     181550
#     200109
# 
# Disc length: 2950
# 
# Revision: 4
# Processed by: cddbd v1.5.2PL0 Copyright (c) Steve Scherf et al.
# Submitted via: fre:ac v1.0.31
# 
DISCID=990b840c
DTITLE=Rod Stewart/Faces - Another Country
DYEAR=2015
DGENRE=Rock/Pop
TTITLE0=Love Is
TTITLE1=Please
TTITLE2=Walking In The Sunshine
TTITLE3=Love And Be Loved
TTITLE4=We Can Win
TTITLE5=Another Country
TTITLE6=Way Back Home
TTITLE7=Can We Stay Home Tonight?
TTITLE8=Batman, Superman, Spiderman
TTITLE9=The Drinking Song
TTITLE10=Hold The Line
TTITLE11=A Friend For Life
EXTD=YEAR: 2015
EXTT0=
EXTT1=
EXTT2=
EXTT3=
EXTT4=
EXTT5=
EXTT6=
EXTT7=
EXTT8=
EXTT9=
EXTT10=
EXTT11=
PLAYORDER=
